<svg width="296" height="128" viewBox="0 0 296 128" fill="none" xmlns="http://www.w3.org/2000/svg">
<g clip-path="url(#clip0_813_512)">
<path d="M48.5503 0C51.9436 0 55.3369 0 58.7302 0C59.9831 0.500412 61.3404 0.342387 62.6455 0.500412C67.9182 1.15885 73.0603 2.37037 77.8631 4.74074C82.0917 6.84774 84.0494 10.5086 83.2663 14.907C83.0836 16.0132 82.5877 17.014 82.17 18.2255C83.7623 17.9358 85.1196 17.3564 86.5813 17.251C89.0871 17.093 90.836 18.3835 91.4102 20.8593C91.7235 22.2025 91.4885 23.493 91.2536 24.7835C90.9926 26.3375 90.9404 26.3111 92.5587 26.3111C106.158 26.3111 119.783 26.3111 133.383 26.3111C134.322 26.3111 135.236 26.3638 135.862 27.1539C136.254 27.628 136.567 27.47 136.985 27.2856C140.874 25.4156 144.998 24.7309 149.279 25.0206C154.473 25.3893 159.015 27.2593 162.513 31.2099C163.4 32.2107 163.818 32.2897 164.81 31.3416C171.779 24.8626 182.455 23.0453 190.521 26.9432C191.33 27.3383 191.982 27.7333 192.713 26.8115C193.053 26.3638 193.705 26.3111 194.279 26.3111C210.933 26.3111 227.586 26.2584 244.239 26.3638C249.146 26.3901 253.479 28.3128 256.925 31.921C257.473 32.5004 257.734 32.5794 258.334 32C263.659 26.8905 270.028 24.6519 277.337 25.0206C285.663 25.4156 292.555 30.7885 294.956 38.8214C295.347 40.1646 295.661 41.5605 296 42.93C296 45.2214 296 47.4864 296 49.7778C295.243 51.6477 295.191 53.6494 294.852 55.6247C292.685 68.2403 290.545 80.856 288.43 93.4453C287.699 97.7646 286.995 102.058 285.141 106.114C278.459 120.757 262.954 124.655 252.461 119.651C252.2 119.519 251.913 119.361 251.626 119.625C250.765 120.415 249.721 120.336 248.677 120.336C227.847 120.336 207.017 120.336 186.162 120.336C185.692 120.336 185.196 120.362 184.726 120.309C183.29 120.125 182.429 119.124 182.377 117.649C182.377 117.386 182.586 117.07 182.246 116.833C178.461 119.598 174.233 121.231 169.587 121.574C162.826 122.074 156.823 120.388 152.176 115.121C151.524 114.357 151.237 114.384 150.532 115.042C144.346 120.547 137.194 122.654 129.05 121.205C126.335 120.731 123.855 119.598 121.506 118.071C120.984 119.888 119.731 120.362 118.087 120.362C98.1185 120.336 78.1503 120.362 58.182 120.362C57.921 120.362 57.66 120.362 57.3989 120.362C55.7023 120.23 54.6843 119.098 54.8148 117.412C54.867 116.543 55.0497 115.674 55.2063 114.805C56.2504 108.589 57.3467 102.374 58.3647 96.158C58.4952 95.3942 58.9129 94.2354 58.0515 93.9193C57.3728 93.6823 56.8769 94.7885 56.4854 95.4469C54.6843 98.5021 52.9093 101.557 51.2127 104.665C47.7411 111.012 44.3739 117.439 40.824 123.786C39.2839 126.525 37.0131 128.527 33.6459 128C30.1481 127.447 28.6864 124.734 27.9556 121.574C27.303 118.729 27.2508 115.832 27.1725 112.935C26.8071 100.214 27.9295 87.5984 29.4173 75.0091C29.5217 74.1136 29.3129 73.7975 28.4776 73.5605C25.7108 72.7967 23.1005 71.6379 20.5947 70.1893C16.6272 67.8979 12.9989 65.1852 10.2843 61.4453C6.8127 56.7045 8.48324 51.121 13.8864 49.8305C14.4607 49.6988 14.6173 49.4091 14.6695 48.856C14.7217 48.1712 14.2519 48.1975 13.8603 48.0658C13.5732 47.9605 13.26 47.9078 12.9728 47.8288C8.35273 46.4856 5.42928 43.1934 3.15838 39.1375C1.98377 36.9251 0.991887 34.6601 0 32.3951C0 31.4206 0 30.4724 0 29.4979C1.33122 26.5218 2.94956 25.6 6.29065 25.9951C9.42293 26.3901 12.2681 27.7597 15.2698 28.6288C16.7316 29.0502 16.7316 29.0765 16.9143 27.5226C17.358 23.7827 17.8801 20.0428 18.5587 16.3556C19.3418 12.0626 21.3256 8.58601 25.3714 6.68971C31.4011 3.87161 37.6656 1.73827 44.2956 0.737449C45.7051 0.526749 47.1929 0.632099 48.5503 0ZM61.9929 36.9778C62.9848 37.2148 63.8462 37.7152 64.7337 38.163C66.0127 38.7951 67.2917 39.4798 68.6229 39.9803C72.7471 41.5342 76.1143 40.6123 79.0899 37.3202C79.5598 36.7934 79.7425 36.372 79.351 35.7136C78.8811 34.8708 78.6462 33.9226 78.5679 32.9482C78.4113 31.3152 79.2205 30.5778 80.8388 30.8412C81.1259 30.8938 81.4392 30.9465 81.7263 31.0782C82.3527 31.3679 82.6138 31.1835 82.8487 30.5251C83.5273 28.6288 84.2843 26.7589 84.9891 24.8889C85.0674 24.6782 85.1196 24.4675 84.8063 24.2831C84.467 24.4412 84.0494 24.6255 83.684 24.8362C79.9513 27.1012 76.0621 29.0502 72.1728 30.9992C70.2674 31.9473 68.3097 32.8165 66.1693 33.1325C64.9947 33.2905 63.7679 33.4486 62.6194 32.5794C63.1675 32.2107 63.7418 32.1844 64.2899 32.1054C66.0649 31.842 67.4222 31.2889 68.3097 29.3663C70.424 24.7572 72.8254 20.2798 75.1224 15.7498C76.4536 13.1161 76.1926 12.3786 73.5302 11.2461C73.2169 11.1144 72.8776 10.9827 72.5644 10.851C67.0829 8.79671 61.3404 8.13827 55.5457 8.00659C46.697 7.79589 38.2138 9.66584 30.122 13.3267C27.4857 14.5119 26.0501 16.4609 25.5802 19.2527C25.1104 22.1498 24.6145 25.0469 24.1707 27.944C22.9439 36.056 21.952 44.1679 21.3778 52.3589C21.2734 53.9128 21.2995 53.9128 22.8134 53.6231C27.0942 52.8066 31.2444 51.5951 35.3947 50.2519C36.2039 49.9885 36.5693 49.5407 36.8042 48.7506C37.4307 46.5646 38.1616 44.4049 38.8402 42.2453C39.4667 40.2436 39.5711 40.191 41.0328 41.7712C42.103 42.93 43.1732 44.0889 44.139 45.3268C44.7393 46.0905 45.2092 46.2222 46.0444 45.6955C49.5683 43.5885 52.8832 41.1918 55.885 38.3473C56.5898 37.6889 57.2945 37.0305 58.1037 36.2667C58.0776 36.9514 57.7905 37.2938 57.5556 37.6362C54.3711 42.0346 50.3513 45.4584 45.6007 48.0132C44.9481 48.3556 44.6871 48.0395 44.3217 47.6181C43.0166 46.0905 41.7115 44.6156 40.2236 42.9037C39.4667 45.6165 38.7619 48.0395 38.1093 50.4889C37.9266 51.1737 37.5873 51.5951 36.8825 51.8321C30.4614 53.8601 24.0402 55.8617 17.3058 56.6255C16.2617 56.7309 16.1051 57.1259 16.836 57.9424C17.9845 59.2593 19.3157 60.4181 20.7513 61.4189C26.8854 65.7646 33.6981 68.056 41.1894 68.451C42.6511 68.53 44.139 68.6354 45.8878 68.7407C45.2614 69.2938 44.8176 69.4255 44.3478 69.5572C42.4684 70.0313 40.563 70.084 38.6575 70.084C36.7259 70.0576 36.7781 70.084 36.5693 72.0593C35.9429 78.0379 35.3425 84.0165 34.8988 89.9951C34.3506 97.791 33.8286 105.587 34.0113 113.409C34.0635 115.279 34.0113 117.175 34.4289 119.045C34.4811 119.309 34.5333 119.625 34.7944 119.704C35.0554 119.783 35.2642 119.519 35.3947 119.282C35.7601 118.677 36.1256 118.071 36.4388 117.465C40.5891 109.063 44.922 100.767 49.6988 92.7078C57.5294 79.4338 65.6995 66.3967 75.0963 54.1761C76.5319 52.3062 76.2187 51.4897 73.9217 50.9103C73.7912 50.884 73.6607 50.884 73.5302 50.8576C69.5104 50.0148 65.4123 50.0148 61.3143 50.0675C60.6095 50.0675 60.4529 50.4889 60.2441 50.963C58.7563 54.2288 57.2684 57.4947 55.7545 60.7342C55.5457 61.1819 55.4413 61.7613 54.8931 62.0247C54.867 61.8667 54.8148 61.735 54.8409 61.6296C54.9453 61.0765 55.0497 60.4971 55.1802 59.9704C56.9291 53.465 59.6959 47.3811 62.4889 41.2971C63.4808 39.1375 63.4808 39.1375 61.9146 37.4519C61.8624 37.3992 61.8363 37.2938 61.7841 37.2148C61.8624 37.1358 61.9146 37.0568 61.9929 36.9778ZM80.0557 34.2123C80.1079 35.2395 80.5517 36.0033 81.0737 36.6881C81.4914 37.2148 81.413 37.5572 80.9954 38.0313C79.9513 39.2165 78.9594 40.586 77.5238 41.1654C75.5922 41.9556 75.1224 43.4305 74.9658 45.2477C74.9136 45.9325 74.8614 46.67 74.6264 47.3284C74.2088 48.4872 74.6526 48.9086 75.7489 49.251C77.7848 49.8831 78.2547 50.6206 78.0459 52.3325C77.8631 53.8074 77.1584 55.0716 76.3231 56.2568C75.1746 57.8107 74 59.3119 72.8254 60.8395C72.4078 61.3663 72.1728 61.9193 72.0423 62.6041C70.5284 71.5325 68.9884 80.4609 67.4744 89.3893C66.2215 96.6321 64.9947 103.875 63.7418 111.144C63.5852 112.119 63.7418 112.54 64.8642 112.514C68.2575 112.435 71.6508 112.435 75.0441 112.514C76.2187 112.54 76.558 112.145 76.7407 111.039C77.6804 105.165 78.7245 99.2922 79.7164 93.4453C81.413 83.5687 83.1097 73.6922 84.8063 63.8156C85.4067 60.2337 85.9809 56.6519 86.5552 53.0436C86.6335 52.4642 86.8162 52.1745 87.4427 52.2272C88.1735 52.2798 87.9647 52.7803 87.9125 53.1753C87.3905 56.2041 86.9206 59.2329 86.5813 62.2617C85.6938 70.2683 84.7541 78.2749 83.8145 86.2815C82.8748 94.6041 81.9351 102.9 80.9693 111.223C80.8649 112.198 81.0476 112.514 82.0917 112.487C86.3464 112.435 90.6272 112.461 94.8818 112.461C97.1266 112.461 97.1266 112.461 97.5965 110.275C101.773 91.1803 106.706 72.2436 110.308 53.0173C110.413 52.4642 110.543 52.1482 111.196 52.2008C112.031 52.2798 111.744 52.8593 111.666 53.2807C109.995 63.1309 108.325 72.9547 106.628 82.8049C104.983 92.4181 103.339 102.058 101.642 111.671C101.512 112.382 101.747 112.487 102.347 112.487C106.132 112.461 109.917 112.461 113.702 112.487C114.328 112.487 114.485 112.224 114.563 111.644C115.659 105.086 116.808 98.5284 117.93 91.9704C119.627 82.0148 121.323 72.0329 123.02 62.0774C124.534 53.2016 126.048 44.2996 127.588 35.4239C127.745 34.5547 127.614 34.2387 126.622 34.2387C119.966 34.2914 113.31 34.2914 106.654 34.2387C105.636 34.2387 105.349 34.6337 105.166 35.5292C103.13 45.037 101.042 54.5185 99.0321 64.0263C97.466 71.4272 95.6388 78.7753 94.412 86.2551C93.9161 89.2313 93.4201 92.2074 92.8981 95.1835C92.7936 95.7366 92.8459 96.5268 91.9062 96.3687C90.836 96.2107 91.4885 95.4996 91.5668 95.0782C92.4282 89.1523 93.6289 83.2527 94.3076 77.3004C95.0645 70.6897 95.9781 64.079 96.8134 57.4947C97.7531 50.1465 98.6406 42.7984 99.6063 35.4765C99.7369 34.5021 99.5541 34.265 98.5884 34.265C94.0205 34.3177 89.4526 34.2914 84.8847 34.2914C83.2924 34.2123 81.6741 34.2123 80.0557 34.2123ZM232.441 97.87C232.258 102.374 232.075 106.904 231.841 111.407C231.788 112.25 232.075 112.461 232.859 112.435C236.33 112.408 239.828 112.382 243.299 112.435C244.448 112.461 244.84 112.198 244.84 110.96C244.97 100.767 245.179 90.6008 245.335 80.4082C245.335 79.8025 245.44 79.3284 245.884 78.8807C248.494 76.2206 250.112 72.9811 250.791 69.3465C251.809 63.8947 252.696 58.3901 253.662 52.9119C254.21 49.7514 254.758 46.6173 254.21 43.3778C253.297 38.242 249.486 34.4494 244.5 34.265C238.758 34.0807 233.015 34.186 227.273 34.1597C226.594 34.1597 226.385 34.423 226.307 35.0551C225.654 39.1111 224.923 43.1671 224.245 47.223C222.47 57.7054 220.695 68.1877 218.894 78.6963C217.041 89.5737 215.161 100.451 213.308 111.302C213.177 112.04 213.256 112.408 214.169 112.408C217.824 112.356 221.478 112.382 225.132 112.408C225.837 112.408 226.124 112.171 226.255 111.486C227.377 104.718 228.526 97.9226 229.674 91.1539C230.066 88.8626 230.483 86.5975 230.849 84.3062C231.005 83.2527 231.762 83.6214 232.337 83.5687C232.963 83.5161 232.989 83.9375 232.963 84.4379C232.806 88.9416 232.624 93.3926 232.441 97.87ZM275.353 32.8691C274.857 32.8955 274.074 32.8955 273.291 32.9745C272.638 33.0535 272.012 33.2115 271.386 33.3695C264.338 35.3449 260.292 40.2963 258.23 47.065C256.977 51.1737 256.586 55.4667 255.855 59.707C254.132 69.6099 252.409 79.5391 250.765 89.4683C250.086 93.5506 249.068 97.6066 249.303 101.821C249.616 107.668 253.036 112.092 258.439 113.356C260.814 113.909 263.189 113.883 265.539 113.33C272.534 111.644 276.737 106.93 279.007 100.293C280.495 95.921 280.835 91.3119 281.644 86.7819C283.314 77.2477 284.933 67.7136 286.473 58.1794C287.151 53.9654 288.248 49.7778 288.195 45.4321C288.065 37.7942 283.21 32.8955 275.353 32.8691ZM121.115 98.9761C121.089 103.849 121.793 107.325 124.43 110.091C128.032 113.857 132.574 114.41 137.35 113.356C144.372 111.776 148.548 106.983 150.845 100.372C152.202 96.5004 152.516 92.4181 153.194 88.4148C154.943 78.3803 156.64 68.3193 158.284 58.2584C158.963 54.1235 160.033 50.0412 160.007 45.7745C159.981 37.2412 154.212 31.5523 144.633 33.1325C137.481 34.3177 133.122 39.0058 130.538 45.5901C129.363 48.6453 129.024 51.8848 128.475 55.0716C126.57 66.0543 124.665 77.0634 122.837 88.0724C122.159 92.0494 121.193 96.0263 121.115 98.9761ZM163.792 84.8066C161.913 84.8066 160.059 84.8329 158.18 84.8066C157.501 84.8066 157.188 84.9383 157.11 85.7021C156.875 87.4403 156.509 89.1523 156.222 90.8905C155.622 94.7885 154.682 98.6074 155.048 102.611C155.517 108.036 158.911 112.198 164.053 113.383C166.82 114.015 169.587 113.909 172.301 113.04C179.218 110.854 183.16 105.824 185.013 99.0552C186.344 94.1564 186.971 89.0996 187.728 84.0691C188.589 78.2486 186.919 73.2181 182.873 69.0305C181.15 67.2395 179.297 65.5539 177.522 63.842C175.407 61.7877 174.416 59.4173 175.146 56.3621C175.695 54.1235 175.956 51.7794 176.451 49.5407C176.791 48.0132 177.965 47.3284 179.244 47.5918C180.341 47.8288 180.758 48.6716 180.471 50.3572C179.975 53.2016 179.479 56.0461 178.957 58.8905C178.67 60.5235 178.644 60.5235 180.236 60.5235C183.316 60.5235 186.423 60.5235 189.503 60.5235C191.539 60.5235 191.539 60.5235 191.956 58.4428C192.061 57.837 192.217 57.2313 192.296 56.6255C192.896 52.6486 193.94 48.7506 193.731 44.642C193.444 39.0848 190.234 34.7128 185.17 33.3432C182.507 32.6321 179.819 32.6584 177.182 33.3695C170.996 35.0288 167.185 39.2691 164.81 45.037C163.218 48.8823 162.931 53.0173 162.174 57.0733C161.599 60.1021 161.129 63.1309 161.495 66.2123C162.069 70.9531 164.601 74.5877 167.942 77.7745C169.456 79.223 171.022 80.6453 172.458 82.1465C173.815 83.5951 174.677 85.307 174.337 87.3877C174.024 89.3893 173.711 91.3646 173.319 93.3399C173.032 94.7885 173.032 96.3161 172.327 97.6593C171.701 98.8181 170.37 99.4239 169.352 98.9498C168.203 98.4231 168.073 97.4486 168.281 96.2897C168.908 92.7605 169.456 89.2049 170.109 85.6757C170.265 84.8856 169.978 84.7803 169.352 84.8066C167.446 84.8329 165.619 84.8066 163.792 84.8066ZM210.88 34.2123C207.148 34.2123 203.389 34.2123 199.656 34.2123C199.082 34.2123 198.56 34.1333 198.404 34.9761C197.699 39.3482 196.968 43.6938 196.211 48.0658C196.08 48.7506 196.263 48.935 196.89 48.935C197.986 48.9086 199.056 48.935 200.152 48.935C202.006 48.935 201.98 48.935 201.666 50.7259C201.17 53.5177 200.701 56.3358 200.205 59.1276C198.43 69.6099 196.655 80.0922 194.854 90.5745C193.679 97.4222 192.531 104.296 191.33 111.144C191.147 112.145 191.356 112.514 192.452 112.487C195.898 112.408 199.317 112.408 202.763 112.487C203.859 112.514 204.172 112.092 204.303 111.118C204.746 108.168 205.268 105.244 205.764 102.321C207.461 92.3654 209.158 82.3835 210.854 72.428C212.133 64.9218 213.438 57.4156 214.691 49.9095C214.822 49.1457 215.057 48.8823 215.84 48.9086C217.093 48.9613 218.372 48.856 219.625 48.935C220.512 48.9877 220.851 48.6453 220.982 47.8025C221.661 43.6675 222.365 39.5062 223.096 35.3712C223.253 34.4494 222.992 34.186 222.052 34.186C218.372 34.2387 214.613 34.2123 210.88 34.2123ZM14.6695 37.7942C15.1393 37.5045 15.4787 37.7416 15.8441 37.8469C17.1492 38.1893 18.4543 38.5317 19.7333 38.8741C20.2032 39.0058 20.6469 39.0321 20.5947 38.3473C20.5686 37.8733 21.169 37.1621 20.2293 36.9514C16.0529 36.1086 12.0332 34.6864 8.06561 33.1852C7.85679 33.1062 7.56966 32.8691 7.38695 33.2115C7.23033 33.4749 7.43915 33.7119 7.56966 33.949C8.40494 35.3712 9.21411 36.8461 10.2843 38.1103C12.6857 40.8757 16.6272 42.0872 19.5767 40.9547C19.8377 40.8494 20.2815 40.8757 20.3076 40.507C20.3337 40.0066 19.8377 40.1119 19.5506 40.0066C17.9062 39.3218 16.1834 38.8741 14.6695 37.7942Z" fill="#010201"/>
<path d="M80.0557 34.2124C81.6741 34.2124 83.2924 34.2124 84.8846 34.2124C89.4526 34.2124 94.0205 34.2387 98.5884 34.186C99.528 34.186 99.7108 34.4231 99.6063 35.3975C98.6406 42.7457 97.7531 50.0938 96.8134 57.4156C95.9781 64.0263 95.0645 70.6107 94.3076 77.2214C93.6289 83.2 92.4282 89.0733 91.5668 94.9992C91.5146 95.4469 90.8621 96.1317 91.9062 96.2897C92.8458 96.4214 92.8197 95.6576 92.898 95.1045C93.4201 92.1284 93.916 89.1523 94.412 86.1761C95.6388 78.6963 97.4921 71.3482 99.0321 63.9473C101.042 54.4395 103.156 44.958 105.166 35.4502C105.349 34.5284 105.636 34.1333 106.654 34.1597C113.31 34.2124 119.966 34.2124 126.622 34.1597C127.614 34.1597 127.745 34.4757 127.588 35.3449C126.048 44.2206 124.534 53.1226 123.02 61.9984C121.323 71.9539 119.627 81.9358 117.93 91.8914C116.808 98.4494 115.685 105.007 114.563 111.565C114.459 112.145 114.328 112.408 113.702 112.408C109.917 112.382 106.132 112.382 102.347 112.408C101.747 112.408 101.512 112.303 101.642 111.592C103.313 101.979 104.983 92.3654 106.628 82.7259C108.325 72.9021 109.995 63.0519 111.666 53.2017C111.744 52.8066 112.031 52.2008 111.196 52.1218C110.543 52.0691 110.439 52.3852 110.308 52.9383C106.706 72.1646 101.773 91.1012 97.5965 110.196C97.1266 112.382 97.1266 112.382 94.8818 112.382C90.6272 112.382 86.3464 112.356 82.0917 112.408C81.0476 112.435 80.8649 112.119 80.9693 111.144C81.9351 102.821 82.8748 94.5251 83.8145 86.2025C84.728 78.1959 85.6938 70.1893 86.5813 62.1827C86.9206 59.1276 87.3905 56.0988 87.9125 53.0963C87.9908 52.7012 88.1996 52.2008 87.4427 52.1482C86.8162 52.0955 86.6335 52.3852 86.5552 52.9646C86.007 56.5465 85.4328 60.1547 84.8063 63.7366C83.1358 73.6132 81.413 83.4897 79.7164 93.3663C78.6984 99.2395 77.6804 105.086 76.7407 110.96C76.558 112.092 76.2187 112.487 75.0441 112.435C71.6508 112.356 68.2575 112.356 64.8642 112.435C63.7418 112.461 63.5852 112.04 63.7418 111.065C64.9947 103.822 66.2215 96.5794 67.4744 89.3103C69.0145 80.3819 70.5545 71.4535 72.0423 62.5251C72.1467 61.8403 72.4078 61.2873 72.8254 60.7605C74 59.2329 75.2007 57.7317 76.3231 56.1778C77.1845 55.0189 77.8892 53.7284 78.0458 52.2535C78.2547 50.5416 77.7587 49.8041 75.7488 49.172C74.6526 48.8296 74.2349 48.4082 74.6264 47.2494C74.8614 46.591 74.8875 45.8798 74.9658 45.1687C75.1224 43.3514 75.5922 41.9029 77.5238 41.0864C78.9594 40.4807 79.9513 39.1375 80.9954 37.9523C81.413 37.4782 81.4914 37.1358 81.0737 36.6091C80.5517 36.0033 80.1079 35.2395 80.0557 34.2124Z" fill="#8BC33F"/>
<path d="M61.8102 37.1885C61.8624 37.2675 61.8624 37.3465 61.9408 37.4255C63.533 39.1111 63.5069 39.0848 62.515 41.2708C59.7482 47.3547 56.9813 53.465 55.2064 59.944C55.0497 60.4971 54.9714 61.0502 54.867 61.6033C54.8409 61.7086 54.8931 61.8403 54.9192 61.9983C55.4674 61.735 55.5718 61.1556 55.7806 60.7078C57.2945 57.4683 58.7824 54.2025 60.2702 50.9366C60.479 50.4625 60.6617 50.0411 61.3404 50.0411C65.4385 49.9885 69.5104 49.9885 73.5563 50.8313C73.6868 50.8576 73.8173 50.8576 73.9478 50.8839C76.2187 51.4634 76.558 52.2798 75.1224 54.1498C65.7256 66.3704 57.5556 79.4074 49.7249 92.6815C44.9743 100.741 40.6413 109.037 36.4649 117.439C36.1517 118.071 35.7863 118.677 35.4208 119.256C35.2903 119.493 35.0815 119.73 34.8205 119.677C34.5594 119.598 34.5072 119.309 34.455 119.019C34.0635 117.149 34.0896 115.253 34.0374 113.383C33.8547 105.56 34.3506 97.7646 34.9249 89.9687C35.3425 83.9638 35.969 78.0115 36.5954 72.0329C36.8042 70.0576 36.7781 70.0576 38.6836 70.0576C40.5891 70.0839 42.4945 70.0049 44.3739 69.5309C44.8438 69.4255 45.2614 69.2938 45.9139 68.7144C44.139 68.609 42.6773 68.5037 41.2155 68.4247C33.7503 68.056 26.9115 65.7646 20.7774 61.3926C19.3418 60.3918 18.0367 59.2329 16.8621 57.916C16.1312 57.0996 16.2878 56.7045 17.3319 56.5992C24.0663 55.8354 30.4875 53.8337 36.9087 51.8058C37.6134 51.5687 37.9527 51.1737 38.1355 50.4625C38.788 48.0132 39.4928 45.5901 40.2497 42.8774C41.7376 44.5893 43.0427 46.0642 44.3478 47.5918C44.7132 48.0132 44.9743 48.3292 45.6268 47.9868C50.4035 45.4321 54.3972 42.0082 57.5817 37.6099C57.8166 37.2675 58.1037 36.9251 58.1298 36.2403C57.3206 37.0041 56.6159 37.6625 55.9111 38.321C52.9094 41.1654 49.6205 43.5621 46.0706 45.6691C45.2092 46.1695 44.7393 46.0379 44.1651 45.3004C43.1993 44.0625 42.1291 42.8774 41.0589 41.7449C39.5972 40.1646 39.4928 40.2173 38.8663 42.2189C38.1877 44.3786 37.4568 46.5383 36.8303 48.7243C36.5954 49.5144 36.23 49.9621 35.4208 50.2255C31.2706 51.5424 27.1203 52.7802 22.8395 53.5967C21.3256 53.8864 21.2995 53.8864 21.4039 52.3325C21.952 44.1416 22.9439 36.0296 24.1968 27.9177C24.6406 25.0206 25.1365 22.1235 25.6064 19.2263C26.0501 16.4346 27.4857 14.4856 30.1482 13.2741C38.2399 9.61317 46.7231 7.74321 55.5718 7.95391C61.3404 8.13827 67.0829 8.7967 72.5644 10.8247C72.8776 10.9564 73.2169 11.0881 73.5302 11.2197C76.1926 12.3523 76.4536 13.116 75.1224 15.7235C72.8254 20.2535 70.424 24.7309 68.3097 29.3399C67.4483 31.2362 66.0649 31.8156 64.29 32.079C63.7418 32.158 63.1937 32.1844 62.6194 32.5531C63.7679 33.4222 64.9686 33.2642 66.1693 33.1062C68.3097 32.8165 70.2413 31.9473 72.1729 30.9728C76.0621 29.0239 79.9513 27.0749 83.684 24.8099C84.0494 24.5992 84.4409 24.4148 84.8064 24.2568C85.1196 24.4411 85.0674 24.6782 84.9891 24.8625C84.2843 26.7325 83.5274 28.6025 82.8487 30.4988C82.6138 31.1572 82.3528 31.3416 81.7263 31.0518C81.4653 30.9202 81.152 30.8675 80.8388 30.8148C79.2205 30.5514 78.4113 31.2889 78.5679 32.9218C78.6723 33.8963 78.8811 34.8444 79.351 35.6872C79.7164 36.3457 79.5598 36.7671 79.09 37.2938C76.1143 40.586 72.7471 41.5078 68.6229 39.9539C67.2917 39.4535 66.0127 38.7687 64.7337 38.1366C63.8462 37.6889 62.9587 37.1885 61.993 36.9514C61.8885 36.9514 61.7841 36.9251 61.6797 36.9251C61.7058 37.0304 61.758 37.1095 61.8102 37.1885ZM36.8303 26.4428C36.8303 24.9942 36.7781 23.5193 36.4127 22.1235C35.6818 19.121 33.5415 18.4099 31.1923 20.4115C29.5739 21.7811 28.3732 23.5193 27.4074 25.3893C25.267 29.577 24.1968 34.0807 23.7792 38.7424C23.5443 41.2444 23.8575 43.7728 25.0843 46.0379C26.4416 48.5662 28.843 48.8823 30.9312 46.9333C31.8709 46.0379 32.5235 44.958 33.0455 43.7992C35.473 38.2683 36.5432 32.4214 36.8303 26.4428ZM56.8769 22.3078C50.5863 28.2601 44.139 33.5276 36.8303 37.6625C39.1535 38.4263 41.3982 38.9004 43.6952 39.1638C45.0787 39.3218 46.4621 39.2955 47.8716 39.2428C51.787 39.0584 54.4233 36.7671 55.2064 32.8691C55.5979 30.9728 55.5196 29.0239 55.3891 27.1012C55.3369 26.2321 55.4674 25.521 56.0416 24.8099C56.4593 24.2304 56.9552 23.572 56.8769 22.3078ZM62.3584 35.2395C65.0208 37.6625 72.0423 37.2675 75.2007 34.6864C70.946 34.9498 66.8219 35.6872 62.3584 35.2395Z" fill="#8BC33F"/>
<path d="M232.441 97.87C232.624 93.3926 232.806 88.9152 232.989 84.4642C233.015 83.9638 232.989 83.5424 232.363 83.5951C231.788 83.6478 231.031 83.279 230.875 84.3325C230.509 86.6239 230.092 88.9152 229.7 91.1803C228.552 97.949 227.403 104.744 226.281 111.513C226.176 112.198 225.863 112.435 225.158 112.435C221.504 112.408 217.85 112.382 214.195 112.435C213.282 112.435 213.204 112.092 213.334 111.328C215.213 100.451 217.067 89.5737 218.92 78.7226C220.721 68.2403 222.47 57.758 224.271 47.2494C224.95 43.1934 225.68 39.1375 226.333 35.0815C226.437 34.4494 226.646 34.1597 227.299 34.186C233.041 34.2124 238.784 34.107 244.526 34.2914C249.512 34.4494 253.323 38.2683 254.236 43.4041C254.811 46.6436 254.236 49.7778 253.688 52.9383C252.722 58.4165 251.835 63.8947 250.817 69.3729C250.138 73.0338 248.494 76.2469 245.91 78.907C245.466 79.3547 245.362 79.8552 245.362 80.4346C245.179 90.6272 244.97 100.793 244.866 110.986C244.84 112.25 244.474 112.487 243.326 112.461C239.854 112.382 236.356 112.408 232.885 112.461C232.102 112.461 231.814 112.25 231.867 111.434C232.075 106.904 232.258 102.4 232.441 97.87ZM227.873 69.4782C227.899 69.6099 227.925 69.7416 227.951 69.8996C230.327 69.8996 232.702 69.8996 235.051 69.8996C237.061 69.8996 237.975 69.1358 238.34 67.1078C238.966 63.605 239.567 60.1284 240.141 56.6255C240.454 54.7819 240.794 52.912 240.976 51.042C241.133 49.5408 240.48 48.9613 239.019 48.9087C238.627 48.8823 238.236 48.935 237.844 48.9087C237.061 48.8296 236.826 49.172 236.696 49.9358C235.86 55.177 234.947 60.3918 234.085 65.6066C233.955 66.3967 233.642 66.8971 232.832 67.2395C231.162 67.898 229.517 68.7144 227.873 69.4782Z" fill="#8BC33F"/>
<path d="M275.353 32.8691C283.21 32.8955 288.091 37.7942 288.169 45.4584C288.222 49.8041 287.125 53.9654 286.447 58.2058C284.907 67.7663 283.288 77.3004 281.618 86.8082C280.835 91.3383 280.495 95.9473 278.981 100.319C276.71 106.956 272.508 111.671 265.513 113.356C263.163 113.936 260.762 113.936 258.413 113.383C253.036 112.119 249.59 107.694 249.277 101.847C249.068 97.6329 250.06 93.577 250.739 89.4946C252.383 79.5654 254.106 69.6362 255.829 59.7333C256.559 55.5193 256.951 51.2 258.204 47.0914C260.266 40.3226 264.312 35.3449 271.359 33.3959C271.986 33.2115 272.612 33.0798 273.265 33.0008C274.048 32.8955 274.831 32.8955 275.353 32.8691ZM274.962 49.7514C275.014 48.8823 274.779 48.1185 273.97 47.7498C273.108 47.3547 272.273 47.5128 271.516 48.1185C270.89 48.6453 270.524 49.33 270.368 50.1202C270.185 51.0683 270.028 52.0165 269.846 52.9646C267.888 64.4214 265.93 75.9045 263.972 87.3877C263.45 90.4428 262.928 93.5243 262.459 96.5794C262.302 97.6066 262.485 98.5811 263.555 98.9761C264.599 99.3449 265.539 99.0025 266.217 98.1333C266.635 97.6066 266.896 97.0272 267.026 96.3687C267.366 94.3934 267.705 92.3918 268.044 90.4165C269.741 80.3556 271.438 70.321 273.16 60.2601C273.787 56.7309 274.387 53.2543 274.962 49.7514Z" fill="#8BC33F"/>
<path d="M121.115 98.9761C121.193 96.0263 122.185 92.0757 122.837 88.0461C124.665 77.037 126.57 66.028 128.475 55.0453C129.024 51.8584 129.363 48.6189 130.538 45.5638C133.096 38.9531 137.455 34.2913 144.633 33.1062C154.212 31.5259 159.981 37.2148 160.007 45.7481C160.033 49.9885 158.963 54.0708 158.284 58.2321C156.64 68.293 154.943 78.3539 153.194 88.3885C152.49 92.3918 152.176 96.5004 150.845 100.346C148.548 106.956 144.372 111.75 137.35 113.33C132.6 114.384 128.032 113.857 124.43 110.064C121.793 107.325 121.062 103.822 121.115 98.9761ZM146.799 49.6988C146.799 48.8296 146.617 48.0658 145.781 47.7234C144.816 47.302 143.902 47.5654 143.145 48.3029C142.31 49.1193 142.179 50.2255 141.996 51.3053C139.647 64.9745 137.324 78.6436 134.975 92.3127C134.714 93.7876 134.479 95.2362 134.296 96.7374C134.192 97.6329 134.348 98.5547 135.34 98.9234C136.332 99.3185 137.22 99.0551 137.951 98.265C138.473 97.7119 138.76 97.0271 138.89 96.2897C139.23 94.3934 139.569 92.4971 139.882 90.6008C141.683 79.9868 143.458 69.3728 145.259 58.7588C145.807 55.7564 146.303 52.7276 146.799 49.6988Z" fill="#8BC33F"/>
<path d="M163.792 84.8066C165.619 84.8066 167.446 84.8329 169.273 84.8066C169.926 84.8066 170.187 84.8856 170.03 85.6757C169.378 89.2049 168.83 92.7605 168.203 96.2897C167.994 97.4486 168.125 98.4231 169.273 98.9498C170.291 99.4239 171.623 98.8181 172.249 97.6593C172.98 96.3161 172.954 94.7885 173.241 93.3399C173.659 91.3646 173.946 89.363 174.259 87.3877C174.598 85.307 173.737 83.5951 172.38 82.1465C170.944 80.6189 169.404 79.1967 167.864 77.7745C164.523 74.614 161.991 70.9531 161.417 66.2124C161.025 63.1309 161.495 60.1021 162.095 57.0733C162.878 53.0436 163.165 48.8823 164.732 45.0371C167.107 39.2692 170.918 35.0288 177.104 33.3696C179.74 32.6584 182.455 32.6321 185.091 33.3432C190.155 34.7128 193.366 39.0848 193.653 44.642C193.862 48.7243 192.818 52.6486 192.217 56.6255C192.113 57.2313 191.982 57.837 191.878 58.4428C191.486 60.5235 191.486 60.5235 189.424 60.5235C186.344 60.5235 183.238 60.5235 180.158 60.5235C178.566 60.5235 178.592 60.5235 178.879 58.8905C179.401 56.0461 179.923 53.2017 180.393 50.3572C180.68 48.698 180.262 47.8288 179.166 47.5918C177.887 47.3021 176.739 48.0132 176.373 49.5408C175.851 51.8058 175.616 54.1235 175.068 56.3622C174.311 59.391 175.303 61.7877 177.443 63.842C179.244 65.5803 181.072 67.2395 182.794 69.0305C186.814 73.2445 188.511 78.2749 187.649 84.0692C186.919 89.0996 186.292 94.1564 184.935 99.0552C183.081 105.824 179.14 110.881 172.223 113.04C169.508 113.883 166.741 114.015 163.975 113.383C158.832 112.198 155.465 108.036 154.969 102.611C154.604 98.6074 155.544 94.7622 156.144 90.8905C156.405 89.1523 156.796 87.4403 157.031 85.7021C157.136 84.9383 157.449 84.7803 158.102 84.8066C160.059 84.8329 161.939 84.8066 163.792 84.8066Z" fill="#8BC33F"/>
<path d="M210.88 34.2123C214.613 34.2123 218.372 34.2386 222.104 34.186C223.044 34.1596 223.305 34.4493 223.149 35.3711C222.418 39.5061 221.713 43.6411 221.034 47.8024C220.904 48.6452 220.538 48.9876 219.677 48.9349C218.424 48.8559 217.145 48.9613 215.892 48.9086C215.135 48.8822 214.874 49.1193 214.744 49.9094C213.491 57.4156 212.186 64.9218 210.907 72.4279C209.21 82.3835 207.513 92.3654 205.817 102.321C205.321 105.244 204.799 108.194 204.355 111.118C204.198 112.066 203.911 112.514 202.815 112.487C199.369 112.408 195.95 112.408 192.504 112.487C191.408 112.514 191.199 112.145 191.382 111.144C192.583 104.296 193.757 97.4222 194.906 90.5744C196.681 80.0921 198.482 69.6098 200.257 59.1275C200.727 56.3357 201.196 53.5176 201.719 50.7259C202.032 48.9349 202.058 48.9349 200.205 48.9349C199.108 48.9349 198.038 48.9086 196.942 48.9349C196.315 48.9349 196.133 48.7506 196.263 48.0658C197.02 43.7201 197.751 39.3481 198.456 34.9761C198.586 34.1333 199.134 34.2123 199.709 34.2123C203.415 34.2123 207.148 34.2123 210.88 34.2123Z" fill="#8BC33F"/>
<path d="M14.6695 37.7942C16.1834 38.8741 17.9062 39.3218 19.5506 39.9802C19.8377 40.0856 20.3598 39.9802 20.3076 40.4806C20.2815 40.8494 19.8377 40.823 19.5767 40.9284C16.6272 42.0609 12.7118 40.8494 10.2843 38.0839C9.188 36.8197 8.40493 35.3448 7.56966 33.9226C7.43914 33.7119 7.25643 33.4485 7.38694 33.1852C7.56966 32.8691 7.85678 33.0798 8.0656 33.1588C12.0331 34.6601 16.0529 36.1086 20.2293 36.9251C21.1951 37.1094 20.5686 37.8206 20.5947 38.321C20.6469 39.0057 20.2032 38.9794 19.7333 38.8477C18.4282 38.5053 17.1231 38.1629 15.8441 37.8206C15.4787 37.7415 15.1393 37.5045 14.6695 37.7942Z" fill="#8BC33F"/>
<path d="M36.8303 26.4428C36.5432 32.4477 35.473 38.2683 33.0455 43.7728C32.5235 44.9316 31.8709 46.0378 30.9312 46.907C28.843 48.8559 26.4416 48.5135 25.0843 46.0115C23.8575 43.7465 23.5704 41.2444 23.7792 38.716C24.1968 34.0543 25.2409 29.5506 27.4074 25.3629C28.3732 23.4666 29.5739 21.7547 31.1922 20.3851C33.5414 18.4098 35.6818 19.0946 36.4127 22.0971C36.7781 23.5193 36.8303 24.9679 36.8303 26.4428ZM35.3425 25.758C35.3425 25.3102 35.3947 24.8625 35.3425 24.4411C35.1598 23.2296 35.5513 21.6493 34.0635 21.1226C32.5757 20.5958 31.6882 21.9127 30.879 22.9135C26.8071 28.102 25.5802 34.1069 25.9196 40.5596C25.9457 41.2971 26.2067 42.0082 26.5721 42.6666C27.4335 44.2469 28.7647 44.4839 30.0698 43.2197C30.6702 42.6403 31.0878 41.9292 31.4533 41.1654C33.7764 36.3193 34.9249 31.1308 35.3425 25.758Z" fill="#010201"/>
<path d="M56.8769 22.3079C56.9552 23.5721 56.4593 24.2305 56.0155 24.8099C55.4674 25.521 55.3108 26.2321 55.363 27.1013C55.4935 29.0239 55.5718 30.9465 55.1802 32.8692C54.3972 36.7408 51.7608 39.0585 47.8455 39.2428C46.4621 39.2955 45.0526 39.3482 43.6691 39.1638C41.3982 38.8741 39.1273 38.4264 36.8042 37.6626C44.139 33.554 50.5862 28.2601 56.8769 22.3079ZM52.9877 28.0758C48.9679 31.3943 44.8698 34.3177 40.5369 37.0832C42.7817 37.7153 47.5323 37.6099 49.3594 36.9778C50.6645 36.5037 51.813 35.7926 52.3612 34.4494C53.1704 32.4478 53.1965 30.3671 52.9877 28.0758Z" fill="#010201"/>
<path d="M62.3584 35.2395C66.848 35.6872 70.946 34.9498 75.2007 34.6864C72.0423 37.2675 64.9947 37.6889 62.3584 35.2395Z" fill="#010201"/>
<path d="M61.8102 37.1884C61.758 37.1094 61.7319 37.0304 61.6797 36.925C61.7841 36.925 61.8885 36.9514 61.9929 36.9514C61.9146 37.0567 61.8624 37.1357 61.8102 37.1884Z" fill="#010201"/>
<path d="M227.873 69.4782C229.517 68.7144 231.136 67.898 232.832 67.2132C233.642 66.8971 233.955 66.3704 234.085 65.5803C234.947 60.3655 235.86 55.1506 236.696 49.9095C236.826 49.1457 237.061 48.8033 237.844 48.8823C238.236 48.935 238.627 48.8823 239.019 48.8823C240.507 48.935 241.133 49.5144 240.976 51.0157C240.794 52.8856 240.454 54.7292 240.141 56.5992C239.567 60.1021 238.966 63.605 238.34 67.0815C237.975 69.1095 237.061 69.8733 235.051 69.8733C232.676 69.8733 230.301 69.8733 227.951 69.8733C227.925 69.7416 227.899 69.6099 227.873 69.4782Z" fill="#010201"/>
<path d="M274.962 49.7514C274.361 53.2543 273.787 56.7308 273.187 60.2337C271.49 70.2946 269.793 80.3292 268.071 90.3901C267.731 92.3654 267.392 94.367 267.053 96.3423C266.948 97.0008 266.661 97.6065 266.243 98.107C265.539 98.9761 264.599 99.3185 263.581 98.9498C262.485 98.5547 262.302 97.5802 262.485 96.553C262.981 93.4979 263.477 90.4164 263.999 87.3613C265.956 75.8782 267.914 64.4214 269.872 52.9382C270.028 51.9901 270.211 51.0419 270.394 50.0938C270.55 49.3037 270.89 48.5926 271.542 48.0921C272.273 47.4864 273.134 47.3284 273.996 47.7234C274.779 48.1185 275.014 48.8823 274.962 49.7514Z" fill="#010201"/>
<path d="M146.799 49.6988C146.303 52.7276 145.781 55.7301 145.285 58.7589C143.484 69.3729 141.709 79.9868 139.908 90.6008C139.595 92.4971 139.23 94.3934 138.916 96.2897C138.786 97.0535 138.499 97.712 137.977 98.265C137.246 99.0288 136.358 99.2922 135.366 98.9235C134.401 98.5284 134.218 97.6329 134.322 96.7375C134.479 95.2626 134.74 93.7877 135.001 92.3128C137.324 78.6436 139.673 64.9745 142.023 51.3054C142.205 50.2255 142.336 49.1194 143.171 48.3029C143.928 47.5654 144.842 47.3284 145.807 47.7235C146.617 48.0659 146.825 48.856 146.799 49.6988Z" fill="#010201"/>
<path d="M35.3425 25.7581C34.8988 31.1309 33.7764 36.3194 31.4533 41.1918C31.0878 41.9556 30.6702 42.6667 30.0698 43.2461C28.7386 44.484 27.4335 44.2733 26.5721 42.6931C26.2067 42.0346 25.9718 41.3235 25.9196 40.5861C25.5803 34.1334 26.8071 28.1284 30.879 22.94C31.6882 21.9128 32.5757 20.6223 34.0635 21.149C35.5252 21.6494 35.1598 23.256 35.3425 24.4675C35.3947 24.8889 35.3425 25.3367 35.3425 25.7581ZM34.1679 25.9161C34.1679 25.7054 34.194 25.4684 34.1679 25.2577C34.1157 24.7836 34.1679 24.2042 33.6459 24.0198C33.0455 23.8091 32.7062 24.3622 32.4452 24.7836C31.5838 26.2058 31.2183 27.7597 31.3489 29.3926C31.4011 29.9721 31.5316 30.6305 32.1841 30.7358C32.8628 30.8412 33.1238 30.2091 33.3587 29.7087C33.933 28.5235 34.1157 27.233 34.1679 25.9161Z" fill="#F0C925"/>
<path d="M52.9877 28.0757C53.1965 30.367 53.1704 32.4477 52.3612 34.4493C51.8131 35.8189 50.6646 36.5037 49.3594 36.9777C47.5323 37.6362 42.7817 37.7152 40.5369 37.0831C44.8698 34.3177 48.9418 31.3942 52.9877 28.0757ZM52.4134 31.5522C52.3873 30.9728 52.3873 30.4724 52.0219 30.1037C51.8653 29.9456 51.6303 30.0773 51.4476 30.209C50.7168 30.7358 49.9076 33.1061 50.2208 33.9489C50.534 34.7654 51.0561 34.8181 51.5781 34.186C52.2307 33.3958 52.309 32.4214 52.4134 31.5522Z" fill="#F0C925"/>
<path d="M34.1679 25.9161C34.1418 27.233 33.9591 28.5235 33.3848 29.7087C33.1499 30.2091 32.8889 30.8675 32.2102 30.7358C31.5577 30.6305 31.4272 29.9721 31.3749 29.3926C31.2183 27.7334 31.6099 26.1795 32.4712 24.7836C32.7323 24.3358 33.0455 23.8091 33.672 24.0198C34.194 24.2042 34.1418 24.7836 34.194 25.2577C34.1679 25.4947 34.1679 25.7054 34.1679 25.9161Z" fill="#FEFEFE"/>
<path d="M52.4134 31.5522C52.309 32.4214 52.2307 33.3959 51.6042 34.1596C51.0822 34.7917 50.5602 34.7391 50.2469 33.9226C49.9337 33.1062 50.7429 30.7094 51.4737 30.1827C51.6564 30.051 51.8914 29.9193 52.048 30.0773C52.3873 30.4724 52.3873 30.9728 52.4134 31.5522Z" fill="#FEFEFE"/>
</g>
<defs>
<clipPath id="clip0_813_512">
<rect width="296" height="128" fill="white"/>
</clipPath>
</defs>
</svg>
