<svg width="171" height="247" viewBox="0 0 171 247" fill="none" xmlns="http://www.w3.org/2000/svg">
<path d="M120.836 54.5772C124.095 56.5631 127.241 56.0959 130.272 55.5702C133.76 54.986 137.02 53.6426 140.222 52.0655C149.2 47.6262 158.179 43.187 166.814 37.9884C167.843 37.4043 168.816 36.5281 170.417 36.5281C168.587 41.3178 166.871 45.9907 165.098 50.6636C164.812 51.4814 164.183 51.5398 163.497 51.3645C162.697 51.1309 161.839 50.8973 160.981 50.7804C157.149 50.3131 155.891 51.4814 156.006 55.3949C156.063 57.5561 156.635 59.6005 157.607 61.5281C158.35 62.93 158.236 63.8646 157.092 65.0912C150.401 72.3926 142.967 74.2617 133.817 70.7571C129.7 69.18 126.04 66.6683 121.98 64.9744C120.95 64.5655 120.035 63.8646 118.834 64.0982C118.777 64.916 119.292 65.3248 119.635 65.7337C122.78 69.0047 122.78 69.0047 120.836 73.2104C114.66 86.6449 108.541 100.138 104.538 114.449C104.08 116.143 103.337 117.895 103.794 119.998C104.995 119.063 105.338 117.837 105.853 116.727C109.113 109.717 112.429 102.708 115.575 95.6403C116.318 93.8879 117.176 93.187 119.12 93.187C127.527 93.1286 135.876 93.479 144.168 95.0561C144.568 95.1146 144.911 95.173 145.312 95.2314C150.687 96.5748 151.316 98.2104 147.885 102.708C115.918 144.998 88.754 190.383 64.7356 237.813C63.5346 240.208 62.3337 242.661 61.0756 245.056C60.6181 245.874 60.275 247.159 59.1884 246.984C57.9875 246.809 58.2735 245.465 58.1591 244.589C57.3013 236.82 57.53 229.052 57.6444 221.283C57.9875 199.554 59.7603 177.942 62.0478 156.388C62.6197 150.78 63.3631 145.173 63.8778 139.566C64.0493 137.755 64.5068 137.346 66.2796 137.463C71.1977 137.696 76.1729 137.58 81.0338 136.294C82.006 136.002 83.0925 135.886 83.7216 134.659C80.9194 133.666 78.0601 134.016 75.2579 133.841C56.5579 132.848 39.6878 127.007 25.1623 114.682C23.5039 113.28 21.9027 111.645 20.4158 110.009C18.9861 108.432 19.5008 107.439 21.5595 107.264C36.1422 105.921 50.0386 101.481 63.935 97.159C65.8221 96.5748 66.9087 95.6987 67.4233 93.5959C68.7386 88.3389 70.3399 83.1403 71.9983 77.416C75.0292 81.0375 77.8885 84.2501 80.5763 87.5795C81.72 89.0398 82.5778 89.3318 84.2934 88.3389C93.9008 83.0818 102.079 76.0725 108.941 67.3692C109.913 66.0842 110.942 64.7991 111.629 62.2874C109.913 63.8061 108.769 64.7407 107.683 65.7921C100.763 72.6846 92.9858 78.409 84.5794 83.3155C82.9781 84.2501 82.006 84.2501 80.805 82.7314C78.2316 79.5188 75.3723 76.4814 72.6845 73.3272C70.9689 71.3412 69.9396 71.9253 69.2533 74.2033C67.5949 79.5772 65.8793 84.8926 64.2209 90.2664C63.7634 91.7851 63.02 92.6613 61.4759 93.1286C52.0401 96.166 42.5471 98.8529 32.8253 100.664C30.7094 101.073 30.3663 100.255 30.5951 98.444C31.6816 87.93 32.5966 77.3576 33.9119 66.8435C35.5703 52.9417 37.8006 39.1566 40.1452 25.3715C41.289 18.5958 44.3771 13.9814 50.782 11.1192C70.3399 2.53275 90.8127 -1.26398 112.201 0.371531C123.295 1.2477 134.332 2.70798 144.74 7.14723C150.973 9.77574 151.545 11.4113 148.457 17.486C143.367 27.5912 138.106 37.5795 133.245 47.8015C131.758 50.8973 129.757 52.2991 126.726 52.9417C124.896 53.3505 122.895 53.1753 120.836 54.5772ZM64.6784 40.6753C64.6784 37.3458 64.7356 34.0748 63.935 30.8038C62.4481 24.437 57.6444 22.6262 52.612 26.715C51.0107 28.0585 49.4667 29.5772 48.2658 31.2711C39.1159 44.0631 35.5703 58.6075 35.9706 74.2617C36.085 77.708 37 81.1543 38.83 84.2501C41.918 89.3903 46.9505 90.0912 51.3539 86.0608C53.6985 83.958 55.1854 81.2711 56.4435 78.4089C61.6475 66.4346 64.1637 53.8178 64.6784 40.6753ZM63.935 65.208C64.6212 65.7337 64.8499 65.9674 65.0787 66.0258C73.3708 68.3038 81.7772 69.8809 90.4124 69.0047C97.618 68.2454 102.822 63.4557 104.595 56.2127C105.681 51.6566 105.91 46.9837 105.338 42.3108C105.109 40.5001 105.281 38.9814 106.539 37.4627C107.683 36.0608 108.827 34.4837 108.769 31.3879C94.7014 44.5888 80.5763 56.3879 63.935 65.208ZM120.721 60.3599C124.953 66.1426 141.595 65.4417 148.8 59.3085C139.307 59.7758 130.214 61.2945 120.721 60.3599Z" fill="#8CC541"/>
<path d="M0 55.278C1.37248 54.8108 2.28747 55.5117 3.20246 55.8622C10.9799 58.958 18.8716 61.7617 27.0493 63.514C29.2224 63.9813 29.1653 65.2664 28.9365 66.9019C28.5934 69.1799 27.1065 67.7196 26.3059 67.5444C22.8747 66.7851 19.5579 65.7921 16.0123 65.2664C19.5579 68.3038 24.0756 69.3552 28.2503 71.1659C19.901 77.6496 5.54712 69.5304 0 55.278Z" fill="#8CC541"/>
<path d="M61.1897 38.3392C60.5034 50.7808 57.8156 62.6967 52.3257 73.8532C50.896 76.7154 49.1804 79.9864 45.4061 79.2854C41.8034 78.6429 41.0027 75.1382 40.8312 72.0425C39.859 56.6803 42.9471 42.4864 53.5266 30.8041C54.9563 29.227 56.6719 28.0004 58.7878 28.7597C60.9037 29.5775 60.9609 31.7971 61.1897 33.6663C61.3612 35.2434 61.1897 36.8205 61.1897 38.3392ZM58.845 39.449C58.7878 38.6312 58.845 37.7551 58.6735 36.8789C58.5591 36.1779 58.5019 35.2434 57.5869 35.0097C56.7291 34.7761 56.1 35.3602 55.6426 36.0027C53.1263 39.6242 52.0398 43.5962 52.8404 48.0354C53.012 48.97 53.4123 49.963 54.556 50.0798C55.5282 50.1966 56.0429 49.3789 56.5004 48.6195C58.216 45.8742 58.5591 42.72 58.845 39.449Z" fill="#F3CA29"/>
<path d="M73.1992 64.3315C82.3491 58.1399 91.2131 51.7147 100.02 44.4717C100.191 48.9693 100.249 52.9413 99.1048 56.9133C97.9611 61.0021 95.0446 63.2217 91.2702 64.2147C85.3228 65.8502 79.261 64.974 73.1992 64.3315ZM98.7045 51.7731C98.3614 50.8969 98.8761 49.2614 97.618 48.9109C96.3027 48.5021 95.788 50.0207 95.2733 50.9553C94.3583 52.5324 93.7865 54.2848 93.7293 56.1539C93.6721 57.2637 93.8436 58.3736 95.1018 58.6656C96.1883 58.8993 96.8174 58.0815 97.332 57.2053C98.3042 55.5698 98.4758 53.7591 98.7045 51.7731Z" fill="#F3CA29"/>
<path d="M98.7052 51.7733C98.3621 50.8972 98.8768 49.2616 97.6187 48.9112C96.3034 48.5023 95.7887 50.021 95.274 50.9556C94.3591 52.5327 93.7872 54.285 93.73 56.1542C93.6728 57.264 93.8444 58.3738 95.1025 58.6659C96.189 58.8995 96.8181 58.0817 97.3328 57.2056C98.3049 55.5701 98.4765 53.7593 98.7052 51.7733Z" fill="white"/>
<path d="M58.8461 39.4486C58.789 38.6308 58.8461 37.7546 58.6746 36.8785C58.5602 36.1775 58.503 35.243 57.588 35.0093C56.7302 34.7757 56.1012 35.3598 55.6437 36.0023C53.1275 39.6238 52.0409 43.5958 52.8415 48.035C53.0131 48.9696 53.4134 49.9626 54.5571 50.0794C55.5293 50.1962 56.044 49.3785 56.5015 48.6191C58.2171 45.8738 58.5602 42.7196 58.8461 39.4486Z" fill="white"/>
</svg>
